<svg width="96" height="96" viewBox="0 0 96 96" fill="none" xmlns="http://www.w3.org/2000/svg">
<rect x="15" y="15" width="64" height="65" fill="#383838"/>
<path d="M0 0L8.75 86.4043L47.9425 96L87.25 86.3893L96 0H0ZM72.67 71.7643L48.0175 77.7857L23.4025 71.7343L21.715 55.0714H33.78L34.6375 63.5486L48.035 66.7971L48.0675 66.8571L61.435 63.675L62.845 49.9286H34.75L33.75 39.2143H63.9125L65 28.2857H19L18 17.7857H78.145L72.67 71.7643Z" fill="#383838"/>
<path d="M17.7363 62.2715C19.7578 63.4141 22.043 64 24.416 64C30.9199 64 36.1348 59.5762 37.541 53.9219C37.9805 52.2227 38.127 50.4062 38.127 46.2461V21.9883H29.3672V48.502C29.3672 50.0254 29.2793 51.0801 29.0449 51.8418C28.5176 53.6289 26.7305 55.2109 24.416 55.2109C23.4785 55.2109 22.6582 55.0352 21.9258 54.5664L17.7363 62.2715ZM44.0156 56.7344C49.8457 61.9492 56.3203 64 61.916 64C70.9395 64 77.9414 58.5508 77.9414 51.1387C77.9414 41.6172 69.3867 39.2441 62.3262 38.0723C56.3789 37.0762 52.9219 36.2852 52.9219 33.5312C52.9219 31.0117 56.1738 29.8984 59.25 29.8984C63.0293 29.8984 67.1016 31.3047 69.8848 33.6484L74.8652 27.4082C70.207 23.7461 64.6699 21.959 59.3672 21.959C49.7871 21.959 44.4258 27.4375 44.4258 34.3223C44.4258 41.0605 50.0508 43.9902 57.082 45.4551C63.2637 46.7441 69.3281 47.2422 69.3281 51.168C69.3281 54.3906 65.3438 55.8555 61.7695 55.8555C57.1699 55.8555 52.7754 53.6289 49.2891 50.4355L44.0156 56.7344Z" fill="#00C4F0"/>
</svg>
