<svg width="1104" height="41" viewBox="0 0 1104 41" fill="none" xmlns="http://www.w3.org/2000/svg">
<path d="M1.05469 18.7949V24.1035L16.1016 31.4512V25.9492L6.13477 21.4492L16.1016 16.9668V11.4648L1.05469 18.7949ZM35.3145 3.97656L19.2656 39.0449H24.8027L40.8516 3.97656H35.3145ZM44.0156 11.4648V16.9668L53.9824 21.4492L44.0156 25.9492V31.4512L59.0625 24.1035V18.7949L44.0156 11.4648Z" fill="#00C4F0"/>
<path d="M398.376 25V12.94H397.53V25H398.376ZM402.155 19.186C402.155 18.07 403.415 16.828 405.071 16.72C406.943 16.612 408.329 18.106 408.329 20.536V25H409.193V20.536C409.193 17.8 407.591 15.91 405.503 15.91C403.901 15.91 402.857 16.648 402.155 17.746V16H401.309V25H402.155V19.186ZM411.301 13.3C411.301 13.624 411.517 13.822 411.823 13.822C412.147 13.822 412.345 13.624 412.345 13.3C412.345 12.976 412.147 12.778 411.823 12.778C411.517 12.778 411.301 12.976 411.301 13.3ZM412.237 25V16H411.373V25H412.237ZM419.107 25.126C420.403 25.126 421.645 24.568 422.509 23.65L421.915 23.056C421.141 23.866 420.187 24.298 419.107 24.298C417.019 24.298 415.345 22.606 415.345 20.536C415.345 18.448 417.037 16.738 419.107 16.738C420.169 16.738 421.231 17.224 421.897 17.98L422.491 17.386C421.627 16.45 420.403 15.91 419.107 15.91C416.569 15.91 414.481 17.998 414.481 20.536C414.481 23.056 416.551 25.126 419.107 25.126ZM424.256 13.3C424.256 13.624 424.472 13.822 424.778 13.822C425.102 13.822 425.3 13.624 425.3 13.3C425.3 12.976 425.102 12.778 424.778 12.778C424.472 12.778 424.256 12.976 424.256 13.3ZM425.192 25V16H424.328V25H425.192ZM431.972 25.126C434.51 25.126 436.598 23.074 436.598 20.536C436.598 17.998 434.51 15.91 431.972 15.91C429.434 15.91 427.346 17.998 427.346 20.536C427.346 23.074 429.434 25.126 431.972 25.126ZM431.972 16.684C434.06 16.684 435.752 18.448 435.752 20.536C435.752 22.678 434.006 24.334 431.972 24.334C429.902 24.334 428.21 22.624 428.21 20.536C428.21 18.376 429.938 16.684 431.972 16.684Z" fill="#E4E4E4"/>
<path d="M583.846 21.544C584.314 23.614 586.222 25.126 588.202 25.126C590.686 25.126 592.306 23.632 592.306 21.904C592.306 20.302 591.298 19.33 589.336 18.646C589.066 18.556 587.86 18.07 587.518 17.926C586.834 17.674 585.16 17.062 585.16 15.64C585.16 14.632 586.33 13.588 588.202 13.588C590.02 13.588 591.298 14.776 591.298 16.18L592.09 16.09C591.946 14.128 590.452 12.778 588.148 12.814C585.772 12.85 584.278 14.146 584.278 15.64C584.278 17.152 585.592 18.106 586.708 18.556C587.14 18.736 588.4 19.204 588.724 19.33C589.858 19.798 591.406 20.338 591.406 21.958C591.406 23.182 590.092 24.262 588.202 24.244C586.6 24.226 585.088 22.894 584.728 21.454L583.846 21.544ZM598.739 25.126C601.277 25.126 603.365 23.074 603.365 20.536C603.365 17.998 601.277 15.91 598.739 15.91C596.201 15.91 594.113 17.998 594.113 20.536C594.113 23.074 596.201 25.126 598.739 25.126ZM598.739 16.684C600.827 16.684 602.519 18.448 602.519 20.536C602.519 22.678 600.773 24.334 598.739 24.334C596.669 24.334 594.977 22.624 594.977 20.536C594.977 18.376 596.705 16.684 598.739 16.684ZM614.584 20.536C614.584 17.944 612.73 15.91 610.228 15.91C608.356 15.91 607.078 16.63 606.304 18.07V12.94H605.458V25H606.304V22.786C606.862 24.154 608.5 25.126 610.228 25.126C612.73 25.126 614.584 23.092 614.584 20.536ZM606.304 21.328V19.762C606.304 18.286 607.906 16.72 609.958 16.72C612.496 16.72 613.72 18.7 613.72 20.536C613.72 22.696 612.172 24.316 609.958 24.316C608.14 24.316 606.304 22.822 606.304 21.328ZM616.566 25H617.43V19.042C617.43 18.088 618.51 16.828 620.076 16.72C620.832 16.666 621.354 16.756 622.056 17.008L622.2 16.108C621.714 15.982 620.94 15.856 620.274 15.91C618.726 16.036 617.826 16.774 617.43 17.764V16H616.566V25ZM627.654 25.126C629.31 25.126 630.75 24.244 631.542 22.84L630.732 22.624C630.012 23.758 628.968 24.316 627.654 24.316C625.656 24.316 624.18 22.822 624.036 20.842H632.118C632.118 20.716 632.136 20.662 632.136 20.5C632.136 17.926 630.156 15.91 627.654 15.91C625.134 15.91 623.172 17.962 623.172 20.536C623.172 23.092 625.134 25.126 627.654 25.126ZM624.036 20.176C624.18 18.178 625.71 16.684 627.654 16.684C629.598 16.684 631.11 18.142 631.254 20.176H624.036ZM639.491 25V19.024C639.491 18.016 640.805 16.738 642.497 16.702C644.225 16.666 645.323 18.07 645.323 20.536V25H646.187V20.536C646.187 19.942 646.133 19.402 646.007 18.898C646.385 17.818 647.573 16.792 648.653 16.72C650.543 16.594 651.767 18.088 651.767 20.536V25H652.631V20.536C652.631 17.746 651.227 15.91 649.085 15.91C647.681 15.91 646.331 16.81 645.773 18.106C645.233 16.738 644.207 15.91 642.803 15.91C641.075 15.91 640.121 16.63 639.491 17.674V16H638.645V25H639.491ZM654.762 13.3C654.762 13.624 654.978 13.822 655.284 13.822C655.608 13.822 655.806 13.624 655.806 13.3C655.806 12.976 655.608 12.778 655.284 12.778C654.978 12.778 654.762 12.976 654.762 13.3ZM655.698 25V16H654.834V25H655.698ZM658.95 25V19.024C658.95 18.016 660.264 16.738 661.956 16.702C663.684 16.666 664.782 18.07 664.782 20.536V25H665.646V20.536C665.646 19.942 665.592 19.402 665.466 18.898C665.844 17.818 667.032 16.792 668.112 16.72C670.002 16.594 671.226 18.088 671.226 20.536V25H672.09V20.536C672.09 17.746 670.686 15.91 668.544 15.91C667.14 15.91 665.79 16.81 665.232 18.106C664.692 16.738 663.666 15.91 662.262 15.91C660.534 15.91 659.58 16.63 658.95 17.674V16H658.104V25H658.95Z" fill="#E4E4E4"/>
<path d="M820.242 25H821.106V20.806H824.346C827.298 20.806 828.738 19.33 828.738 16.846C828.738 14.398 827.19 12.94 824.346 12.94H820.242V25ZM824.346 13.75C826.632 13.75 827.892 14.884 827.892 16.828C827.892 18.88 826.704 19.996 824.346 19.996H821.106V13.75H824.346ZM834.528 25.126C837.066 25.126 839.154 23.074 839.154 20.536C839.154 17.998 837.066 15.91 834.528 15.91C831.99 15.91 829.902 17.998 829.902 20.536C829.902 23.074 831.99 25.126 834.528 25.126ZM834.528 16.684C836.616 16.684 838.308 18.448 838.308 20.536C838.308 22.678 836.562 24.334 834.528 24.334C832.458 24.334 830.766 22.624 830.766 20.536C830.766 18.376 832.494 16.684 834.528 16.684ZM841.157 25H842.021V19.042C842.021 18.088 843.101 16.828 844.667 16.72C845.423 16.666 845.945 16.756 846.647 17.008L846.791 16.108C846.305 15.982 845.531 15.856 844.865 15.91C843.317 16.036 842.417 16.774 842.021 17.764V16H841.157V25ZM850.108 14.146V16.216H848.218L848.056 17.026H850.108V22.534C850.108 24.262 850.774 25.09 852.448 25.09C853.024 25.09 853.69 24.982 854.302 24.766L854.176 23.92C853.852 24.064 853.384 24.172 852.79 24.208C851.476 24.28 850.954 23.866 850.954 22.084V17.026H853.978V16.216H850.954V14.146H850.108ZM856.974 17.026H860.088V16.216H856.974V15.946C856.974 14.11 857.37 13.39 858.954 13.462C859.476 13.498 859.836 13.57 860.34 13.75L860.466 12.994C859.908 12.814 859.26 12.688 858.612 12.688C856.506 12.688 856.128 13.912 856.128 15.874V16.216H854.94L854.778 17.026H856.128V25H856.974V17.026ZM865.8 25.126C868.338 25.126 870.426 23.074 870.426 20.536C870.426 17.998 868.338 15.91 865.8 15.91C863.262 15.91 861.174 17.998 861.174 20.536C861.174 23.074 863.262 25.126 865.8 25.126ZM865.8 16.684C867.888 16.684 869.58 18.448 869.58 20.536C869.58 22.678 867.834 24.334 865.8 24.334C863.73 24.334 862.038 22.624 862.038 20.536C862.038 18.376 863.766 16.684 865.8 16.684ZM873.365 25V12.94H872.501V25H873.365ZM875.68 13.3C875.68 13.624 875.896 13.822 876.202 13.822C876.526 13.822 876.724 13.624 876.724 13.3C876.724 12.976 876.526 12.778 876.202 12.778C875.896 12.778 875.68 12.976 875.68 13.3ZM876.616 25V16H875.752V25H876.616ZM883.396 25.126C885.934 25.126 888.022 23.074 888.022 20.536C888.022 17.998 885.934 15.91 883.396 15.91C880.858 15.91 878.77 17.998 878.77 20.536C878.77 23.074 880.858 25.126 883.396 25.126ZM883.396 16.684C885.484 16.684 887.176 18.448 887.176 20.536C887.176 22.678 885.43 24.334 883.396 24.334C881.326 24.334 879.634 22.624 879.634 20.536C879.634 18.376 881.362 16.684 883.396 16.684Z" fill="#E4E4E4"/>
<path d="M1040.86 25.126C1042.42 25.126 1044.06 24.37 1045.21 23.182L1044.6 22.57C1043.67 23.596 1042.19 24.262 1040.86 24.262C1037.98 24.262 1035.66 21.778 1035.66 18.898C1035.66 16.036 1038 13.66 1040.86 13.66C1042.26 13.66 1043.63 14.254 1044.58 15.298L1045.2 14.686C1044.06 13.516 1042.44 12.814 1040.86 12.814C1037.55 12.814 1034.81 15.568 1034.81 18.898C1034.81 22.21 1037.55 25.126 1040.86 25.126ZM1051.37 25.126C1053.91 25.126 1056 23.074 1056 20.536C1056 17.998 1053.91 15.91 1051.37 15.91C1048.84 15.91 1046.75 17.998 1046.75 20.536C1046.75 23.074 1048.84 25.126 1051.37 25.126ZM1051.37 16.684C1053.46 16.684 1055.15 18.448 1055.15 20.536C1055.15 22.678 1053.41 24.334 1051.37 24.334C1049.3 24.334 1047.61 22.624 1047.61 20.536C1047.61 18.376 1049.34 16.684 1051.37 16.684ZM1059.23 19.186C1059.23 18.07 1060.49 16.828 1062.14 16.72C1064.02 16.612 1065.4 18.106 1065.4 20.536V25H1066.27V20.536C1066.27 17.8 1064.66 15.91 1062.58 15.91C1060.97 15.91 1059.93 16.648 1059.23 17.746V16H1058.38V25H1059.23V19.186ZM1070.05 14.146V16.216H1068.16L1068 17.026H1070.05V22.534C1070.05 24.262 1070.71 25.09 1072.39 25.09C1072.96 25.09 1073.63 24.982 1074.24 24.766L1074.12 23.92C1073.79 24.064 1073.32 24.172 1072.73 24.208C1071.42 24.28 1070.89 23.866 1070.89 22.084V17.026H1073.92V16.216H1070.89V14.146H1070.05ZM1075.38 20.536C1075.38 23.092 1077.23 25.126 1079.74 25.126C1081.46 25.126 1083.1 24.154 1083.66 22.786V25H1084.51V16H1083.66V18.07C1082.89 16.63 1081.63 15.91 1079.75 15.91C1077.25 15.91 1075.38 17.944 1075.38 20.536ZM1080.01 24.316C1077.79 24.316 1076.24 22.696 1076.24 20.536C1076.24 18.7 1077.49 16.72 1080.02 16.72C1082.08 16.72 1083.66 18.286 1083.66 19.762V21.328C1083.66 22.822 1081.82 24.316 1080.01 24.316ZM1091.21 25.126C1092.5 25.126 1093.75 24.568 1094.61 23.65L1094.02 23.056C1093.24 23.866 1092.29 24.298 1091.21 24.298C1089.12 24.298 1087.45 22.606 1087.45 20.536C1087.45 18.448 1089.14 16.738 1091.21 16.738C1092.27 16.738 1093.33 17.224 1094 17.98L1094.59 17.386C1093.73 16.45 1092.5 15.91 1091.21 15.91C1088.67 15.91 1086.58 17.998 1086.58 20.536C1086.58 23.056 1088.65 25.126 1091.21 25.126ZM1098.03 14.146V16.216H1096.14L1095.98 17.026H1098.03V22.534C1098.03 24.262 1098.7 25.09 1100.37 25.09C1100.95 25.09 1101.61 24.982 1102.23 24.766L1102.1 23.92C1101.78 24.064 1101.31 24.172 1100.71 24.208C1099.4 24.28 1098.88 23.866 1098.88 22.084V17.026H1101.9V16.216H1098.88V14.146H1098.03Z" fill="#E4E4E4"/>
<path d="M76.0625 23.2402C76.0625 22.9121 76.1738 22.6367 76.3965 22.4141C76.6309 22.1797 76.9121 22.0625 77.2402 22.0625H79.9297L79.4727 20.7617C79.2852 20.2812 79.0977 19.8301 78.9102 19.4082C78.7344 18.9746 78.5293 18.582 78.2949 18.2305C78.084 17.8789 77.8438 17.6914 77.5742 17.668C77.293 17.6914 77.041 17.8789 76.8184 18.2305C76.5957 18.582 76.3906 18.9746 76.2031 19.4082C76.0273 19.8301 75.8457 20.2812 75.6582 20.7617L73.9883 25.332C73.8711 25.5781 73.7188 25.7832 73.5312 25.9473C73.3555 26.0996 73.0859 26.1758 72.7227 26.1758C72.3828 26.1758 72.1016 26.0586 71.8789 25.8242C71.668 25.5898 71.5742 25.3086 71.5977 24.9805C71.6094 24.8281 71.6445 24.6875 71.7031 24.5586L73.6367 19.5664C74.1758 18.2539 74.7148 17.1934 75.2539 16.3848C75.7812 15.5879 76.5547 15.1836 77.5742 15.1719C78.582 15.1836 79.3496 15.5879 79.877 16.3848C80.416 17.1699 80.9551 18.2305 81.4941 19.5664L83.4277 24.5586C83.4863 24.6875 83.5215 24.8281 83.5332 24.9805C83.5566 25.3086 83.457 25.5898 83.2344 25.8242C83.0234 26.0586 82.748 26.1758 82.4082 26.1758C82.0215 26.1758 81.7344 26.0996 81.5469 25.9473C81.3711 25.7832 81.2246 25.5781 81.1074 25.332L80.7734 24.418H77.2402C76.9121 24.418 76.6367 24.3008 76.4141 24.0664C76.1797 23.8438 76.0625 23.5684 76.0625 23.2402ZM90.8984 17.7207C91.5078 17.7207 92.1055 17.791 92.6914 17.9316C93.2891 18.0723 93.8574 18.2832 94.3965 18.5645C94.9355 18.834 95.4102 19.1973 95.8203 19.6543C96.2422 20.1113 96.4707 20.6562 96.5059 21.2891V22.0273V25.0332C96.4355 25.7363 96.0488 26.1172 95.3457 26.1758C95.0176 26.1758 94.7305 26.0703 94.4844 25.8594C94.25 25.6367 94.1328 25.3613 94.1328 25.0332V24.2598V21.834C94.1094 21.4707 93.9688 21.1719 93.7109 20.9375C93.4648 20.6914 93.1836 20.498 92.8672 20.3574C92.5625 20.2168 92.2402 20.1113 91.9004 20.041C91.5723 19.9707 91.2383 19.9355 90.8984 19.9355C90.5586 19.9355 90.2188 19.9707 89.8789 20.041C89.5508 20.1113 89.2285 20.2168 88.9121 20.3574C88.6074 20.498 88.3262 20.6914 88.0684 20.9375C87.8223 21.1719 87.6875 21.4707 87.6641 21.834V24.2598V25.0332C87.6055 25.7363 87.2246 26.1172 86.5215 26.1758C86.1934 26.1758 85.9062 26.0703 85.6602 25.8594C85.4258 25.6367 85.3086 25.3613 85.3086 25.0332V22.0273V21.2891C85.3438 20.6562 85.5664 20.1113 85.9766 19.6543C86.3867 19.1973 86.8613 18.834 87.4004 18.5645C87.9395 18.2832 88.502 18.0723 89.0879 17.9316C89.6855 17.791 90.2891 17.7207 90.8984 17.7207ZM102.553 15.3125C102.881 15.3125 103.162 15.4238 103.396 15.6465C103.631 15.8574 103.754 16.127 103.766 16.4551V17.9844H109.742C110.07 17.9844 110.352 18.0957 110.586 18.3184C110.809 18.5527 110.92 18.834 110.92 19.1621C110.92 19.4902 110.803 19.7715 110.568 20.0059C110.346 20.2285 110.07 20.3398 109.742 20.3398H103.766V20.6914C103.754 21.1719 103.783 21.6172 103.854 22.0273C103.936 22.4258 104.123 22.7832 104.416 23.0996C104.709 23.416 105.078 23.5859 105.523 23.6094H109.812C110.141 23.6211 110.41 23.7441 110.621 23.9785C110.844 24.2129 110.955 24.4941 110.955 24.8223C110.943 25.1387 110.826 25.4082 110.604 25.6309C110.393 25.8418 110.129 25.9531 109.812 25.9648H104.926C104.105 25.918 103.426 25.6426 102.887 25.1387C102.359 24.623 101.979 23.9961 101.744 23.2578C101.521 22.5195 101.404 21.7344 101.393 20.9023V20.3398H99.3711C99.043 20.3398 98.7676 20.2227 98.5449 19.9883C98.3105 19.7656 98.1934 19.4902 98.1934 19.1621C98.1934 18.834 98.3047 18.5586 98.5273 18.3359C98.7617 18.1016 99.043 17.9844 99.3711 17.9844H101.393V16.4551C101.404 16.1387 101.521 15.875 101.744 15.6641C101.967 15.4414 102.236 15.3242 102.553 15.3125ZM118.25 26.2637C117.641 26.2637 117.037 26.1934 116.439 26.0527C115.854 25.9121 115.291 25.707 114.752 25.4375C114.213 25.1562 113.738 24.7871 113.328 24.3301C112.918 23.873 112.695 23.3281 112.66 22.6953V21.957V18.9512C112.66 18.623 112.777 18.3535 113.012 18.1426C113.258 17.9199 113.545 17.8086 113.873 17.8086C114.576 17.8672 114.957 18.248 115.016 18.9512V19.7246V22.1504C115.039 22.5137 115.174 22.8184 115.42 23.0645C115.678 23.2988 115.959 23.4863 116.264 23.627C116.58 23.7676 116.902 23.873 117.23 23.9434C117.57 24.0137 117.91 24.0488 118.25 24.0488C118.59 24.0488 118.924 24.0137 119.252 23.9434C119.592 23.873 119.914 23.7676 120.219 23.627C120.535 23.4863 120.816 23.2988 121.062 23.0645C121.32 22.8184 121.461 22.5137 121.484 22.1504V19.7246V18.9512C121.484 18.623 121.602 18.3535 121.836 18.1426C122.082 17.9199 122.369 17.8086 122.697 17.8086C123.4 17.8672 123.787 18.248 123.857 18.9512V21.957V22.6953C123.822 23.3281 123.594 23.873 123.172 24.3301C122.762 24.7871 122.287 25.1562 121.748 25.4375C121.209 25.707 120.641 25.9121 120.043 26.0527C119.457 26.1934 118.859 26.2637 118.25 26.2637ZM131.715 17.7207C132.324 17.7207 132.922 17.791 133.508 17.9316C134.105 18.0723 134.674 18.2832 135.213 18.5645C135.752 18.834 136.227 19.1973 136.637 19.6543C137.059 20.1113 137.287 20.6562 137.322 21.2891V22.0273V25.0332C137.252 25.7363 136.865 26.1172 136.162 26.1758C135.834 26.1758 135.547 26.0703 135.301 25.8594C135.066 25.6367 134.949 25.3613 134.949 25.0332V24.2598V21.834C134.926 21.4707 134.785 21.1719 134.527 20.9375C134.281 20.6914 134 20.498 133.684 20.3574C133.379 20.2168 133.057 20.1113 132.717 20.041C132.389 19.9707 132.055 19.9355 131.715 19.9355C131.375 19.9355 131.035 19.9707 130.695 20.041C130.367 20.1113 130.045 20.2168 129.729 20.3574C129.424 20.498 129.143 20.6914 128.885 20.9375C128.639 21.1719 128.504 21.4707 128.48 21.834V24.2598V25.0332C128.422 25.7363 128.041 26.1172 127.338 26.1758C127.01 26.1758 126.723 26.0703 126.477 25.8594C126.242 25.6367 126.125 25.3613 126.125 25.0332V22.0273V21.2891C126.16 20.6562 126.383 20.1113 126.793 19.6543C127.203 19.1973 127.678 18.834 128.217 18.5645C128.756 18.2832 129.318 18.0723 129.904 17.9316C130.502 17.791 131.105 17.7207 131.715 17.7207ZM143.158 25.9648C142.127 25.9297 141.348 25.6895 140.82 25.2441C140.293 24.7871 139.912 24.2773 139.678 23.7148C139.443 23.1406 139.326 22.5605 139.326 21.9746C139.326 21.3652 139.438 20.7793 139.66 20.2168C139.895 19.6426 140.275 19.1328 140.803 18.6875C141.342 18.2305 142.021 17.9961 142.842 17.9844H149.521C149.85 17.9844 150.125 18.0957 150.348 18.3184C150.582 18.5293 150.699 18.7871 150.699 19.0918C150.699 19.4082 150.582 19.6777 150.348 19.9004C150.125 20.1113 149.85 20.2168 149.521 20.2168H142.947C142.689 20.2168 142.461 20.3047 142.262 20.4805C142.074 20.6562 141.934 20.8848 141.84 21.166C141.758 21.4473 141.717 21.7227 141.717 21.9922C141.717 22.2852 141.758 22.5723 141.84 22.8535C141.934 23.1348 142.074 23.3633 142.262 23.5391C142.461 23.7031 142.689 23.791 142.947 23.8027H149.521C149.85 23.8027 150.125 23.9082 150.348 24.1191C150.582 24.3301 150.699 24.582 150.699 24.875C150.699 25.1797 150.582 25.4375 150.348 25.6484C150.125 25.8594 149.85 25.9648 149.521 25.9648H143.158ZM150.488 21.9395C150.488 22.1621 150.389 22.3555 150.189 22.5195C150.014 22.6719 149.791 22.748 149.521 22.748H143.773C143.504 22.748 143.275 22.6719 143.088 22.5195C142.9 22.3555 142.807 22.1621 142.807 21.9395C142.807 21.7285 142.9 21.541 143.088 21.377C143.275 21.2246 143.504 21.1484 143.773 21.1484H149.521C149.791 21.1484 150.02 21.2305 150.207 21.3945C150.395 21.5469 150.488 21.7285 150.488 21.9395ZM163.883 19.0039C163.883 19.2969 163.766 19.543 163.531 19.7422C163.309 19.9297 163.033 20.0234 162.705 20.0234H155.27C155.117 20.0234 154.994 20.0527 154.9 20.1113C154.807 20.1699 154.736 20.2344 154.689 20.3047C154.643 20.3633 154.619 20.416 154.619 20.4629C154.619 20.5215 154.643 20.5859 154.689 20.6562C154.736 20.7148 154.807 20.7734 154.9 20.832C154.994 20.8789 155.117 20.9082 155.27 20.9199H161.018C161.756 20.9316 162.365 21.0781 162.846 21.3594C163.326 21.6289 163.666 21.9512 163.865 22.3262C164.076 22.6895 164.182 23.0586 164.182 23.4336C164.182 23.7969 164.076 24.166 163.865 24.541C163.654 24.9043 163.309 25.2266 162.828 25.5078C162.359 25.7773 161.756 25.9121 161.018 25.9121C160.889 25.9238 160.795 25.9297 160.736 25.9297H153.916C153.588 25.9297 153.307 25.8359 153.072 25.6484C152.85 25.4492 152.738 25.209 152.738 24.9277C152.738 24.6348 152.855 24.3887 153.09 24.1895C153.312 24.002 153.588 23.9082 153.916 23.9082H161.158C161.334 23.9199 161.475 23.8965 161.58 23.8379C161.697 23.7793 161.785 23.7148 161.844 23.6445C161.902 23.5742 161.932 23.5039 161.932 23.4336C161.932 23.3984 161.902 23.3398 161.844 23.2578C161.785 23.1641 161.697 23.0938 161.58 23.0469C161.475 22.9883 161.334 22.9531 161.158 22.9414H155.393C154.713 22.9297 154.15 22.7891 153.705 22.5195C153.26 22.2383 152.943 21.916 152.756 21.5527C152.568 21.1895 152.475 20.8262 152.475 20.4629C152.475 20.0996 152.568 19.7422 152.756 19.3906C152.955 19.0273 153.271 18.7168 153.705 18.459C154.15 18.1895 154.713 18.043 155.393 18.0195C155.51 18.0078 155.598 18.002 155.656 18.002H162.705C163.033 18.002 163.309 18.1016 163.531 18.3008C163.766 18.4883 163.883 18.7227 163.883 19.0039Z" fill="white"/>
<line x1="396" y1="30.5" x2="442" y2="30.5" stroke="url(#paint0_linear_185_2)"/>
<defs>
<linearGradient id="paint0_linear_185_2" x1="396" y1="31" x2="442" y2="31" gradientUnits="userSpaceOnUse">
<stop stop-color="#E2A300"/>
<stop offset="1" stop-color="#E29500"/>
</linearGradient>
</defs>
</svg>
