<svg width="286" height="286" viewBox="0 0 286 286" fill="none" xmlns="http://www.w3.org/2000/svg">
<path fill-rule="evenodd" clip-rule="evenodd" d="M3.53678e-06 23.894C3.53678e-06 17.557 2.5174 11.4794 6.99839 6.99842C11.4794 2.51743 17.5569 3.18541e-05 23.894 3.18541e-05H262.08C265.22 -0.00509732 268.331 0.60925 271.234 1.8079C274.137 3.00655 276.774 4.76596 278.996 6.9854C281.218 9.20485 282.98 11.8407 284.182 14.7422C285.384 17.6436 286.002 20.7536 286 23.894V262.08C286.003 265.221 285.387 268.332 284.187 271.235C282.987 274.138 281.227 276.775 279.006 278.997C276.786 281.219 274.149 282.981 271.247 284.182C268.345 285.384 265.234 286.002 262.093 286H23.894C20.7551 286 17.647 285.382 14.7472 284.18C11.8474 282.978 9.21273 281.217 6.9938 278.997C4.77486 276.777 3.01512 274.141 1.81509 271.241C0.615072 268.34 -0.00170424 265.232 3.53678e-06 262.093V23.894ZM113.204 109.044H151.931V128.492C157.521 117.312 171.821 107.25 193.31 107.25C234.507 107.25 244.27 129.519 244.27 170.378V246.064H202.579V179.686C202.579 156.416 196.989 143.286 182.793 143.286C163.098 143.286 154.908 157.443 154.908 179.686V246.064H113.204V109.044ZM41.704 244.283H83.408V107.25H41.704V244.27V244.283ZM89.375 62.556C89.4536 66.1268 88.8182 69.6773 87.5061 72.9991C86.194 76.321 84.2316 79.3473 81.734 81.9004C79.2365 84.4536 76.2541 86.4822 72.9619 87.8671C69.6698 89.2521 66.1341 89.9655 62.5625 89.9655C58.9909 89.9655 55.4553 89.2521 52.1631 87.8671C48.8709 86.4822 45.8886 84.4536 43.391 81.9004C40.8934 79.3473 38.931 76.321 37.6189 72.9991C36.3068 69.6773 35.6714 66.1268 35.75 62.556C35.9043 55.5471 38.797 48.8773 43.8085 43.975C48.82 39.0726 55.5519 36.3275 62.5625 36.3275C69.5731 36.3275 76.305 39.0726 81.3165 43.975C86.328 48.8773 89.2207 55.5471 89.375 62.556V62.556Z" fill="#E7E7E7"/>
</svg>
