<svg width="96" height="96" viewBox="0 0 96 96" fill="none" xmlns="http://www.w3.org/2000/svg">
<rect x="13" y="12" width="65" height="69" fill="#383838"/>
<path d="M5.67603 0L13.38 86.4L47.952 96L82.614 86.388L90.33 0H5.68203H5.67603ZM73.56 28.26H33.012L33.978 39.114H72.6L69.69 71.646L47.952 77.67L26.244 71.646L24.762 55.002H35.4L36.156 63.462L47.958 66.642L47.982 66.636L59.79 63.45L61.014 49.71H24.288L21.432 17.664H74.514L73.566 28.26H73.56Z" fill="#383838"/>
<g clip-path="url(#clip0_106_48)">
<path d="M20.0916 57.5433H24.54C24.6361 57.5443 24.7292 57.5104 24.8022 57.4478C24.8751 57.3853 24.9229 57.2984 24.9366 57.2033L25.9283 52.0466H29.385C30.832 52.0829 32.2756 51.8916 33.6633 51.48C34.7876 51.1081 35.814 50.4884 36.6666 49.6666C37.4324 48.9782 38.0745 48.1637 38.565 47.2583C39.0501 46.3726 39.3942 45.4167 39.585 44.425C39.886 43.3854 39.9377 42.2894 39.7359 41.2261C39.534 40.1627 39.0843 39.162 38.4233 38.305C37.6574 37.5267 36.7304 36.9256 35.7074 36.5438C34.6844 36.162 33.5902 36.0088 32.5016 36.095H24.0016C23.8997 36.0996 23.8022 36.1384 23.7251 36.2053C23.648 36.2721 23.5957 36.363 23.5766 36.4633L19.6666 57.0333C19.6233 57.1523 19.6233 57.2827 19.6666 57.4016C19.7207 57.4579 19.7876 57.5002 19.8617 57.5249C19.9357 57.5496 20.0146 57.5559 20.0916 57.5433ZM28.1666 40.09H31C31.539 40.0176 32.0871 40.0529 32.6124 40.1939C33.1377 40.335 33.6297 40.5789 34.06 40.9116C34.5416 41.4216 34.6266 42.385 34.3716 43.745C34.2296 44.9617 33.6567 46.0874 32.7566 46.9183C31.6345 47.6288 30.3124 47.9568 28.9883 47.8533H26.7216L28.1666 40.09ZM55.9333 37.3983C54.3994 36.2706 52.5001 35.7554 50.6066 35.9533H47.235L48.17 30.9666C48.1976 30.9092 48.2119 30.8462 48.2119 30.7825C48.2119 30.7187 48.1976 30.6558 48.17 30.5983C48.0693 30.5615 47.9589 30.5615 47.8583 30.5983H43.41C43.3139 30.5973 43.2207 30.6312 43.1478 30.6938C43.0748 30.7563 43.027 30.8432 43.0133 30.9383L39.1033 51.5366C39.076 51.5891 39.0617 51.6475 39.0617 51.7066C39.0617 51.7658 39.076 51.8241 39.1033 51.8766C39.1367 51.9289 39.1828 51.9719 39.2373 52.0017C39.2918 52.0314 39.3529 52.0469 39.415 52.0466H43.7783C43.8788 52.0469 43.9756 52.009 44.0492 51.9406C44.1229 51.8723 44.1678 51.7785 44.175 51.6783L46.3566 40.1466H49.5016C50.7766 40.1466 51.23 40.43 51.3716 40.6C51.487 40.8784 51.5464 41.1769 51.5464 41.4783C51.5464 41.7797 51.487 42.0782 51.3716 42.3566L49.6433 51.5366C49.616 51.5891 49.6017 51.6475 49.6017 51.7066C49.6017 51.7658 49.616 51.8241 49.6433 51.8766C49.6785 51.9272 49.725 51.9689 49.7791 51.9985C49.8332 52.028 49.8934 52.0445 49.955 52.0466H54.375C54.4769 52.042 54.5744 52.0032 54.6515 51.9363C54.7286 51.8695 54.7809 51.7786 54.8 51.6783L56.6133 42.045C56.9059 41.2768 56.997 40.4465 56.878 39.6332C56.7589 38.8198 56.4337 38.0504 55.9333 37.3983V37.3983ZM68.74 35.9533H59.8716C59.8195 35.9494 59.7672 35.9559 59.7175 35.9724C59.6679 35.9888 59.6221 36.0149 59.5826 36.0491C59.5431 36.0834 59.5107 36.1251 59.4874 36.1718C59.4641 36.2186 59.4502 36.2695 59.4466 36.3216L55.31 57.0333C55.2842 57.0913 55.2709 57.154 55.2709 57.2175C55.2709 57.2809 55.2842 57.3437 55.31 57.4016C55.348 57.447 55.3958 57.4833 55.4497 57.5078C55.5037 57.5323 55.5624 57.5445 55.6216 57.5433H60.24C60.3408 57.5515 60.441 57.5209 60.52 57.4577C60.599 57.3945 60.6509 57.3035 60.665 57.2033L61.7133 52.0466H65.3116C66.805 52.0795 68.2949 51.8885 69.7316 51.48C70.9687 51.1358 72.1118 50.5159 73.075 49.6666C73.8659 48.9802 74.5363 48.1662 75.0583 47.2583C75.5525 46.3739 75.9061 45.418 76.1066 44.425C76.4155 43.3844 76.4686 42.2847 76.2614 41.2192C76.0542 40.1537 75.5929 39.154 74.9166 38.305C74.1155 37.4935 73.1495 36.8637 72.0839 36.4579C71.0182 36.0522 69.8779 35.8801 68.74 35.9533V35.9533ZM70.4966 43.8016C70.3272 45.0285 69.7241 46.1542 68.7966 46.975C67.6339 47.6887 66.2751 48.016 64.915 47.91H62.6483L64.1783 40.09H67.0116C68.1442 39.9512 69.2875 40.2446 70.2133 40.9116C70.6666 41.4216 70.6666 42.385 70.4966 43.8016V43.8016Z" fill="#00C4F0"/>
</g>
<defs>
<clipPath id="clip0_106_48">
<rect width="68" height="68" fill="white" transform="translate(14 14)"/>
</clipPath>
</defs>
</svg>
