<svg width="58" height="34" viewBox="0 0 58 34" fill="none" xmlns="http://www.w3.org/2000/svg">
<path d="M7.17188 14.0312V6.88281H15.6797C17.0625 6.88281 17.6953 7 18.2578 7.23438C19.6172 7.77344 20.625 8.89844 20.625 10.4688C20.625 12.0859 19.5703 13.1641 18.2578 13.7031C17.6719 13.9375 17.0391 14.0312 15.7031 14.0312H7.17188ZM7.17188 34V20.4766H16.6172C19.4766 20.4766 21.4219 19.9141 23.0156 18.9062C25.7812 17.1719 27.5391 14.1484 27.5391 10.4688C27.5391 6.64844 25.7812 3.67188 23.0625 1.98438C21.4453 0.953125 19.4766 0.414062 16.6172 0.414062H0.164062V34H7.17188ZM30.1875 28.1875C34.8516 32.3594 40.0312 34 44.5078 34C51.7266 34 57.3281 29.6406 57.3281 23.7109C57.3281 16.0938 50.4844 14.1953 44.8359 13.2578C40.0781 12.4609 37.3125 11.8281 37.3125 9.625C37.3125 7.60938 39.9141 6.71875 42.375 6.71875C45.3984 6.71875 48.6562 7.84375 50.8828 9.71875L54.8672 4.72656C51.1406 1.79688 46.7109 0.367188 42.4688 0.367188C34.8047 0.367188 30.5156 4.75 30.5156 10.2578C30.5156 15.6484 35.0156 17.9922 40.6406 19.1641C45.5859 20.1953 50.4375 20.5938 50.4375 23.7344C50.4375 26.3125 47.25 27.4844 44.3906 27.4844C40.7109 27.4844 37.1953 25.7031 34.4062 23.1484L30.1875 28.1875Z" fill="#00C4F0"/>
</svg>
